<svg xmlns="http://www.w3.org/2000/svg" viewBox="0 0 295.11 214.82"><defs><style>.cls-1{fill:#c7d5fd;}.cls-2{fill:#232c7a;}.cls-3{fill:#e79642;}.cls-4{fill:#dd5e5b;}.cls-5{fill:#1b225a;}.cls-6{fill:#b03476;}.cls-7{fill:#809afa;}.cls-8{fill:#3648a1;}.cls-9{fill:#6268ad;}.cls-10{fill:#df7474;}.cls-11{fill:#7679d4;}.cls-12{fill:#9194dd;}.cls-13{fill:#fff;}.cls-14{fill:#1c2458;}.cls-15{fill:#f1ca60;}.cls-16{fill:#47341d;}.cls-17{fill:#362513;}.cls-18{fill:#484846;}.cls-19{fill:#2c2b2a;}.cls-20{fill:#7fa54c;}.cls-21{fill:#3f5225;}.cls-22{fill:#6d8f40;}.cls-23{fill:#2d2f2a;}.cls-24{fill:#131412;}.cls-25{fill:#b13476;}.cls-26{fill:#88255f;}.cls-27{fill:#4d325c;}.cls-28{fill:#e18520;}.cls-29{fill:#293599;}.cls-30{fill:#dba928;}.cls-31{fill:#f5d98b;}.cls-32{fill:#607ffb;}.cls-33{fill:#422a4f;}</style></defs><title>B-3</title><g id="Layer_2" data-name="Layer 2"><g id="OBJECTS"><path class="cls-1" d="M287,210.17c0,2.57-59.38,4.65-132.62,4.65s-132.62-2.08-132.62-4.65,59.38-4.66,132.62-4.66S287,207.6,287,210.17Z"/><path class="cls-2" d="M227.83,11.23c8.64-5.54,16.95-.78,15.45,3.42.88-4.07-7.18-7.45-14.05-1.62Z"/><path class="cls-2" d="M243.28,14.65s-.49-2.56-2.33-3-7-.94-9.7,3a8.85,8.85,0,0,1-7,3.88,25.55,25.55,0,0,1,2.41,1.89s1.56.27,3.44-1.51c0,0-.16,1.42-3.28,2.38a5.1,5.1,0,0,0,3.92.95,6.37,6.37,0,0,0,3-1.67l-1.26,2.81s1.48.37,3.32-1.37S243.28,14.65,243.28,14.65Z"/><path class="cls-3" d="M245,15.65s-.55-1.44-1.75-1.44-4.53.58-4.81,2.2,1.76,2.12,3.76,2.12S245,15.65,245,15.65Z"/><path class="cls-4" d="M246.49,48.6s4.29-.53,6.09,1.17,4.35,29.36,11.32,30.77c0,0,8.31-2.15,12.06-4.81,4.1-2.93,5.34-5.52,5.34-6.87s1.68-3.59,2.24-3.59.5,1,.5,1,4.54-5,5.28-4.28-2.55,3.93-2.55,3.93S290.32,62,291.06,62s-.24,1.86-1.3,2.86c0,0,1.68-.94,2.17,0s-3.79,5-4.91,7.41-2.81,1.46-3.35,2.29C275.46,87,260.85,91,257.31,85.94S240.71,50,246.49,48.6Z"/><path class="cls-5" d="M252.58,49.77c-1.8-1.7-6.09-1.17-6.09-1.17-2.53.61-1.45,6.88.85,14.15,2.55-1.08,5-2.61,7.62-3.63C254,54.28,253.23,50.38,252.58,49.77Z"/><path class="cls-6" d="M288,64.62c-.69.71-1.22,1.3-1.22,1.3S287.37,65.34,288,64.62Z"/><polygon class="cls-7" points="287.44 59.87 282.13 70.62 286.09 72.51 293.97 62.07 287.44 59.87"/><polygon class="cls-8" points="295.11 61.84 288.56 59.52 287.44 59.87 293.97 62.07 286.09 72.51 287.02 72.26 295.11 61.84"/><path class="cls-4" d="M283.54,65.27A1.63,1.63,0,0,1,285,66.36c.31,1,0,1.35-.46,1.35s-.81-1-1.19-1a6.68,6.68,0,0,0-1.59.69S282.67,65.54,283.54,65.27Z"/><path class="cls-4" d="M189.07,194.48l-2.32,2.81s-.84.7.84,2.64a9.78,9.78,0,0,1,2.17,5.81c0,1.21,3,2.17,3,2.17s-2-8.13-1.12-10.54c.43-1.25,9.72-13.14,19-25a64.43,64.43,0,0,0-7.74-5.06C196.62,179.57,189.07,194.48,189.07,194.48Z"/><path class="cls-9" d="M247.72,118.15a55.76,55.76,0,0,1-18.38-8.45c-3.83,10.18-7.14,22.6-7.14,34.91,0,0-7.92,1.75-11.46,7.92-1.26,2.18-4.54,8.1-8,14.81a63,63,0,0,0,7.93,5.94c8.62-11,17.25-22.77,18.82-25.06C231.76,144.91,241.06,129.83,247.72,118.15Z"/><path class="cls-10" d="M248.36,48.94a7.76,7.76,0,0,1-1-2.81s2.65-5.87,3.75-8.93S245,33.37,245,33.37s-1.44,8.61-5.54,12.52C242.06,48.62,245.13,49,248.36,48.94Z"/><path class="cls-4" d="M245,33.37s-.18,1.09-.6,2.65a10.21,10.21,0,0,0,4.78,4.1l.65.27c.48-1.16.93-2.29,1.25-3.19C252.21,34.15,245,33.37,245,33.37Z"/><path class="cls-11" d="M227.43,107.9c5.48,4,13.69,8.49,20.29,10.25.85-1.49,1.66-2.93,2.41-4.28a41.36,41.36,0,0,0,4.37-12c-6.6-1.18-12.76-4.46-18.87-6.42C233.68,99.24,229.53,102.33,227.43,107.9Z"/><path class="cls-10" d="M267.9,175.31a47.2,47.2,0,0,0-9.32,3.51c6.47,13.51,13.9,28.38,13.9,28.38s-1.46,3.47-.92,4,6.19.2,7.07.2,6.35.26,6.35.26l-8.17-3.73C276.13,207,271.89,190.9,267.9,175.31Z"/><path class="cls-11" d="M260.54,146.31c-.93-3.61-8.74-26.37-12.58-37.53a10.11,10.11,0,0,0-10.64-6.53c-6,.6-12.62,3.55-10.28,14.06,0,0,19.7,27.07,20.94,30.36s-1.24,4,1.49,12c1.08,3.16,3.78,12.65,8,21.46,2.94-1.49,7.34-3.93,10.59-4.79C264.57,161.72,261.12,148.56,260.54,146.31Z"/><path class="cls-12" d="M260.54,146.31c-1.48-4.16-8.09-21.64-13-37.27-1.16-4.05-5.55-7.07-10.21-6.79a10.18,10.18,0,0,1,11.14,6.5C251.86,117.84,258.44,137.07,260.54,146.31Z"/><polygon class="cls-13" points="287.99 60.85 292.67 62.43 286.45 71.28 283.41 69.75 286.39 71.07 292.41 62.51 287.99 60.85"/><path class="cls-4" d="M286.73,72.8A14.08,14.08,0,0,1,289,70.94c1.18-.73,2.7-2.63,2.24-3.23s-4.66-.35-5.16.53,2.41.45,2.62.65S286.73,72.8,286.73,72.8Z"/><path class="cls-14" d="M218.07,60.07c-.14.11-13.88,10.68-16.55,25.11a.18.18,0,0,0,.16.21h0a.2.2,0,0,0,.2-.15c2.64-14.28,16.27-24.77,16.41-24.88a.17.17,0,0,0,0-.26A.21.21,0,0,0,218.07,60.07Z"/><path class="cls-10" d="M253.17,21.64s4.2-.35,4.85,2.73-1.83,5.9-1.21,7.08a5,5,0,0,0,2.38,2c.37.16-.33,1.17-.93,1.39,0,0-.27.56-.1.73s.61.46.47.86-.86.59-.86.59.71.69.35,1a3.08,3.08,0,0,1-1.12.52s.18,1.57-.61,2-3.19-.15-5.24-1l-1.94-.76A9.46,9.46,0,0,1,242.93,30C243,25.19,244.85,19.84,253.17,21.64Z"/><path class="cls-8" d="M251.11,22.83a3.53,3.53,0,0,1,1.27,2.91c0,1.89-.23,2.11-.23,2.11h2.52a10.52,10.52,0,0,0,.28-3,24.11,24.11,0,0,1,.32,3h6.12s1.25-7.22-4.67-11.27-12.82-.44-12.82-.44-4.67-.44-6.49,2.95-2.51,12.56.42,15.69c1.42,1.52,8.49,2.32,9.09-1.6s2.57-5.5,2.57-5.5a4,4,0,0,1,1.12,3,19.23,19.23,0,0,0,0-5.06C250.28,23.27,251.11,22.83,251.11,22.83Z"/><path class="cls-8" d="M256.18,36.16c-.4.4.94.72,1.59.83-.51,0-1.69-.17-1.81-.63,0-.17.08-.43.22-.34a.09.09,0,0,1,0,.13h0Z"/><path class="cls-8" d="M256.41,31a.7.7,0,0,1-.46.85Z"/><path class="cls-5" d="M254.59,30.67c.9.13,2.53.23,3.18-.37C257.37,31.12,255.56,31.22,254.59,30.67Z"/><path class="cls-15" d="M260,60.93c-2.07-2-9-7.17-11.68-12-3.23.05-6.3-.32-8.87-3A8,8,0,0,1,238,47c-5.23,3,0,19.2,0,19.2s4.07,19.14,2.69,20.44a31.32,31.32,0,0,0-6.79,8.76c4.85,4.58,16.32,9.16,22.92,10.34.19-1,1.15-30.8,2.43-33.78C261.16,67.62,262.53,63.28,260,60.93Z"/><path d="M12.66,168.83C4.56,164,1,155.31,4.81,149.07s13.48-7.8,22-3.67l1-1.73C18.31,139,7.33,140.88,3,148.08s-.47,17.09,8.64,22.48Z"/><path d="M12.66,168.83C4.56,164,1,155.31,4.81,149.07s13.48-7.8,22-3.67l1-1.73C18.31,139,7.33,140.88,3,148.08s-.47,17.09,8.64,22.48Z"/><path d="M15.64,167.22c-8.79-5.09-13.57-12.81-10.71-17.55s12.33-4.77,21.44-.22l.79-1.3C17,143,6.27,143.16,3,148.62s2,14.22,11.88,19.91Z"/><path class="cls-16" d="M.52,157.75l5.71-1.21s-1.49-6.71,6.25-10.06l-2.27-5.35s-5.13,1.23-8.83,7.4C-1.1,152.67.52,157.75.52,157.75Z"/><path class="cls-17" d="M5.53,156.68l.7-.14s-1.49-6.71,6.25-10.06l-.23-.52C4.6,148.94,5.2,155,5.53,156.68Z"/><polygon class="cls-18" points="92.89 107.56 67.83 149.06 63.8 146.89 88.86 105.39 92.89 107.56"/><polygon class="cls-19" points="88.86 105.39 88.86 105.39 91.22 106.66 66.15 148.15 67.83 149.06 92.89 107.56 88.86 105.39"/><path class="cls-20" d="M69.9,145.63a4.29,4.29,0,0,0-1.54-5.94c-.52-.32-1-.61-1.58-.9C48.65,129,25.56,135,15.21,152.11s-4,38.93,14.1,48.71c.54.29,1.08.56,1.63.82a4.84,4.84,0,0,0,6.2-1.77Z"/><path class="cls-21" d="M68.29,139.33A39.39,39.39,0,0,0,36,136a39.84,39.84,0,0,1,32,3.84,4,4,0,0,1,1.94,5.12c-.24.66-19.81,32.63-32.78,55C44,189,70.05,146.31,70.48,145.11A4.57,4.57,0,0,0,68.29,139.33Z"/><path class="cls-22" d="M68.36,139.69c-.52-.32-1-.61-1.58-.9a39.68,39.68,0,0,0-32.91-2.09,39.08,39.08,0,0,1,17.65,4.2c.85.43,1.67.88,2.46,1.36a4.31,4.31,0,0,1,1.53,6L25.26,198.3a39.37,39.37,0,0,0,4,2.52c.54.29,1.08.56,1.63.82a4.84,4.84,0,0,0,6.2-1.77L69.9,145.63A4.29,4.29,0,0,0,68.36,139.69Z"/><path class="cls-23" d="M66.78,150.79l-.49-.28c-13.66-7.36-30.49-3.81-37.58,7.94s-1.78,27.24,11.88,34.6l.51.26Z"/><path class="cls-24" d="M66.29,150.51c-10.47-5.64-22.78-4.86-31.17,1.08a30.8,30.8,0,0,1,26.26,1.64l.5.28-23.2,38.41c.62.39,1.25.77,1.91,1.13l.51.26,25.68-42.52Z"/><polygon points="79.93 120.18 83.96 122.35 92.89 107.56 87.36 104.58 79.93 120.18"/><path d="M38.5,195.49a7.11,7.11,0,0,1,2.89,10,8,8,0,0,1-10.58,2.73,7.1,7.1,0,0,1-2.89-10A8,8,0,0,1,38.5,195.49Z"/><path class="cls-18" d="M36.94,198.07A4.23,4.23,0,0,1,38.65,204a4.76,4.76,0,0,1-6.28,1.62,4.23,4.23,0,0,1-1.72-5.94A4.77,4.77,0,0,1,36.94,198.07Z"/><path d="M154.3,196.18a5.51,5.51,0,0,1,1.94,7.37,5.11,5.11,0,0,1-7.11,2,5.52,5.52,0,0,1-1.94-7.37A5.11,5.11,0,0,1,154.3,196.18Z"/><path class="cls-25" d="M146.81,199.35l-21.76-10.41a5.55,5.55,0,0,1-2.65-7.65l23.51-43.88c5.39-10,18.39-14.08,29-9L189,135.16,156.2,196.44A7.19,7.19,0,0,1,146.81,199.35Z"/><path class="cls-25" d="M174.71,161.9l-32.64-15.61a4.21,4.21,0,0,1-2-5.81l4.84-9c4.1-7.64,14-10.7,22.07-6.83L189,135.16Z"/><path class="cls-26" d="M148.71,200.25l-6.07-2.9a4.08,4.08,0,0,1-1.95-5.63l26.81-50c4-7.4,13.53-10.36,21.36-6.62l.18.09-33.8,63.07A5,5,0,0,1,148.71,200.25Z"/><path class="cls-27" d="M201.63,108.72l-5.72-.35a3.7,3.7,0,0,0-3.46,1.85l-18.66,34.32h4.11L196,111.1a3.57,3.57,0,0,1,3.46-1.82l1.75.15-19.3,35.09,2.08,0,18.3-33.49a1.74,1.74,0,0,0-.68-2.34Z"/><path class="cls-27" d="M195.91,108.37c-4.21-.13-2.71,3.09-22.12,36.17,1.67-3.32,17.69-34.09,19.46-35.39A3.91,3.91,0,0,1,195.91,108.37Z"/><polygon class="cls-27" points="169.81 144.47 184.01 144.55 160.69 188.06 146.09 188.06 169.81 144.47"/><path d="M141.42,193a7.24,7.24,0,0,1,2.55,9.68,6.72,6.72,0,0,1-9.34,2.65,7.26,7.26,0,0,1-2.55-9.69A6.71,6.71,0,0,1,141.42,193Z"/><path class="cls-18" d="M140,195.46a4.3,4.3,0,0,1,1.52,5.75,4,4,0,0,1-5.55,1.57A4.29,4.29,0,0,1,134.5,197,4,4,0,0,1,140,195.46Z"/><path class="cls-4" d="M134.33,37.45s-2.37-1.28-8.67,3.89a103.69,103.69,0,0,0-35.37,59.08l-6,6.32s-1.63.56,1.32,1.49c0,0,.72,1.44,1.67,1.26a1.57,1.57,0,0,0,1.5.48,1,1,0,0,0,.52-1.2l3.63-8.37S106.25,76.88,113,68.65,139.73,41.92,134.33,37.45Z"/><path class="cls-28" d="M106.78,59.51,116,68.6s18.27-21.79,19.27-26,.19-5.71-1.85-5.62C124.82,37.31,106.78,59.51,106.78,59.51Z"/><path class="cls-2" d="M142.13,39.63a11,11,0,0,0-9.75-1.76c-5.47,1.75-15.14,29.41-17.7,42.57-.4,2-4.23,18.12-3,22.28,6.58,22.85,32.13,57.65,32.13,57.65l17.37,45.79s-1.47,4.83-.94,6.08,3.26,0,5.56,0,8.2,1,8.64,1,4.76-1.08,4.76-1.08-9.35-1.34-12.52-6.84-10-51-10-51-12.49-62.64-12.9-68.89,4.88-39.82,2.67-42.82S142.13,39.63,142.13,39.63Z"/><path class="cls-29" d="M111.65,102.72l.41,46.37s-17.11,45.65-19.58,48-8.68,7.4-8.68,7.4,4.11,2.75,6.52,4.7c3.06,2.46,5.69,2.36,13.1,2.36s-2.15-1.83-3.88-3.47c-3.2-3-1.42-9.66-1.42-9.66l27.34-42.84s13-37.24,18.32-38.63l1.32-19Z"/><path class="cls-7" d="M143.55,116.77c-5.33,2-16.78,33.54-18.53,38.61-1.12,1.79-17.35,27.22-26.9,43,8.46-12.56,21.45-32.78,27.79-42.64l0-.05c14.82-41.2,17.87-38.22,18.08-38.62,0,0,.53-10,.68-13.17C144.28,108.21,143.93,112.49,143.55,116.77Z"/><path class="cls-8" d="M118.88,151.71l0-.08c.22-1.84,5.46-44.95,5.46-47.6a.25.25,0,0,0-.49,0c0,2.59-5.27,45.93-5.46,47.5L94.94,196.08l-1.34-.86c-.07.15-.15.29-.22.42l4.77,3.07c0-.19,0-.3,0-.3l.13-.2-2.9-1.87Z"/><path class="cls-15" d="M146.9,85.39c-.41-6.24,1.76-39.76-.45-42.76s-4.32-3-4.32-3a9.24,9.24,0,0,0-10.32-2.92c-5.44,1.83-17.55,29.83-20.1,43-.4,2-4,23.25-2.83,27.41,0,0,42.76,2.59,42.76,2.59C150.39,102.84,147,87,146.9,85.39Z"/><path class="cls-30" d="M144.05,103.68a14.29,14.29,0,0,0,5.87-2.77c-.16-.82-.33-1.64-.5-2.46-11.85,7.18-28.27,5.73-40.54,1.34-.09,1-.16,2-.2,2.93A72.8,72.8,0,0,0,119.53,105a5.74,5.74,0,0,0,1.72,2.92L140.4,109A5.89,5.89,0,0,0,144.05,103.68Z"/><path class="cls-10" d="M145.1,28.29s-7.16,6-9,8.84c-.91,1.43,3.08,3.85,6.48,5.48a2.64,2.64,0,0,0,3.35-1l5.68-9.27Z"/><path class="cls-4" d="M145.1,28.29s-1.3,1.1-2.94,2.58c1.7,1.47,2.63,4.42,4.48,7.08a4.25,4.25,0,0,0,1,1l4-6.58Z"/><path class="cls-14" d="M144.63,5.13c-.82,2.15-1,5.11.54,7l-.13.12c-2.11-1.74-2.52-5-2.12-7.56Z"/><path class="cls-14" d="M139.45,9.16c1.56,1.17,5,3.43,6.94,3.06l0,.17c-2,.54-5.79-1.49-7.52-2.6Z"/><path class="cls-10" d="M156.8,12s4.35,2.33,4.35,7S159,30.7,159,30.7l-1.89-.44s.39,1.25-.29,1.89c0,0,.22.4,0,.61a5.82,5.82,0,0,0-2.26,1.91c-.74,1.25-5.32,2.11-7.35-.5s-2.12-4.75-4.26-5.75S142.25,7.68,156.8,12Z"/><path class="cls-2" d="M152,14.71s6.35,5.33,9.7,5.33,9.38-3.9,7.94-8.67a48.56,48.56,0,0,0-2.38-5s-1.86,6.08-8.73,4.41l3.17-4.41-2.82-2-5.73,3.5a5.43,5.43,0,0,0-5.65-.67c-3.09,1.5-2.41,5-2.41,5s-6.67-.5-7.82,3.16,0,7.42,0,10.25,5,5.17,5,5.17l2.86-2.5a10.4,10.4,0,0,1,.47-6.17c1.32-2.83,2.56-.58,2.56-.58Z"/><path class="cls-10" d="M147.47,21.62A3.62,3.62,0,0,0,144,18.33c-3.26-.21-4,3.82-2.47,5.29a3.77,3.77,0,0,0,4.85.29A4.15,4.15,0,0,0,147.47,21.62Z"/><path class="cls-4" d="M146.41,21.91a1.62,1.62,0,0,0-2-1.79,1.53,1.53,0,0,0-.32,3A2.21,2.21,0,0,0,146.41,21.91Z"/><path class="cls-8" d="M156.8,32.15c-2.25-.52-1.52-.87-1.38-.73A5.05,5.05,0,0,0,156.8,32.15Z"/><path class="cls-8" d="M157.09,30.26a.82.82,0,0,1-.75-.92c0-.8.36-.48.32-.36C156.44,29.61,156.39,30,157.09,30.26Z"/><path class="cls-13" d="M146.43,22.25a1.09,1.09,0,1,0-1.09,1.06,1.24,1.24,0,0,0,.27,0v2.16h.82V22.25Z"/><path class="cls-8" d="M158.33,24.6c-.27.44-.76.66-1.08.48s-.36-.68-.09-1.12.75-.66,1.07-.48S158.6,24.16,158.33,24.6Z"/><path class="cls-8" d="M155.3,21.92c1.3-1.08,3.48-2.22,4.35-.79.16.27-.27.5-.43.23-.66-1.09-2.68.15-3.59.91C155.38,22.48,155.05,22.13,155.3,21.92Z"/><path class="cls-14" d="M30.94,109.61c5.33-4.28,16.11-.35,16.57-.18a.17.17,0,0,1,.1.23.19.19,0,0,1-.24.1c-.11,0-11-4-16.19.11C31,110,30.75,109.76,30.94,109.61Z"/><path class="cls-14" d="M12.94,130.08c10.6-13.94,26.09-7,26.25-6.92a.18.18,0,1,1-.16.32c-.16-.07-15.38-6.89-25.79,6.8a.19.19,0,0,1-.26,0A.16.16,0,0,1,12.94,130.08Z"/><path class="cls-2" d="M171.88,14C174.06,6.44,165.21.38,165.12.32s0-.42.22-.28,9.15,6.26,6.9,14A.19.19,0,0,1,171.88,14Z"/><path class="cls-10" d="M139.58,45.22c5.21,4.66-16.62,18.64-23.7,26.61s-19.23,32.33-19.23,32.33l-5.42,7.64-1.29.43a1.54,1.54,0,0,1-1.48-.52c-1,.14-1.62-1.33-1.62-1.33-1.11-.4-1.56-.71-1.68-.95h0c-.6-.48.24-4.7.89-4.92.46-.15.68,1.93.76,3.16l5.07-4.91c7-28.83,17.46-46.11,30.36-55.8S139.58,45.22,139.58,45.22Z"/><path class="cls-31" d="M120.24,69.62l-13.71-8.27s13.26-15.3,20.66-18.55,13-1.38,13.92,1.09,1.62,4.07-3.12,9S120.24,69.62,120.24,69.62Z"/><path class="cls-13" d="M133.63,41.1c2.71-.26,6.4.23,7.58,2.52.84,2,1.23,3.31.23,5.24-2.28,4.46-17.3,17.42-21.2,20.76,20.84-20.28,22.73-20.37,20.6-25.84A4,4,0,0,0,139,42.06,10.85,10.85,0,0,0,133.63,41.1Z"/><path class="cls-10" d="M241.21,49.48A7.16,7.16,0,0,0,237,47.9c-2.34,0-17.82,19.37-21.83,25.89-3.84,6.24-15.43,24.8-17.91,28.69l-1.87,4a3.61,3.61,0,0,0,.53,3.87l.31.36a8.28,8.28,0,0,0,1.62.18,7.61,7.61,0,0,0,1.39-.61,3.44,3.44,0,0,0,.78,0,5.77,5.77,0,0,0,1.18-.89l-.76-4.47C216.41,78,237,62.45,242.93,59.34,246.45,57.49,241.21,49.48,241.21,49.48Z"/><path class="cls-2" d="M242,47.9c-.74-1.06-2.2-2.22-5.32-.68-1.51.75-10.11,11.07-16.25,19.2a33.92,33.92,0,0,1,5.7,6.11c7.6-7.24,14-11.68,16.82-13.19C246.45,57.49,243.66,50.29,242,47.9Z"/><path class="cls-32" d="M237.27,63.06a40.77,40.77,0,0,1,3.88-2.9c.64-.47,1.44-.84,2-1.27a3.05,3.05,0,0,0,1.08-1.9,10.48,10.48,0,0,0-.44-4.66A20.13,20.13,0,0,0,242,47.9a15.09,15.09,0,0,1,2.21,4.32,10.16,10.16,0,0,1,.57,4.87,3.57,3.57,0,0,1-1.3,2.17,10.14,10.14,0,0,1-1.06.63l-1.05.6C240,61.3,238.63,62.19,237.27,63.06Z"/><path class="cls-33" d="M108.64,98.48c11.31,2.41,32,4.8,40.61-2.57l.91,3.16c-3.11,3-5.4,3.13-9.27,4.16-10.15,2.36-23.9.85-32.71-1.92Z"/><rect class="cls-27" x="120.65" y="97.42" width="22.12" height="10.95" rx="5.47"/><path d="M131.28,104.33a18.18,18.18,0,0,1-7.22-1.5l-1.7-.74a.31.31,0,0,1-.16-.41.32.32,0,0,1,.42-.14l1.71.74a17.35,17.35,0,0,0,15.87-1,.36.36,0,0,1,.45.1.29.29,0,0,1-.1.41A17.91,17.91,0,0,1,131.28,104.33Z"/><path class="cls-27" d="M188.39,195.3l-3.94,2.36a11.57,11.57,0,0,1,2.56,3.79c.56,1.81,1.32,5.85,3.61,6.46a8.22,8.22,0,0,0,3.64.31,20.92,20.92,0,0,1-1.92-2.91,3.49,3.49,0,0,1-2.08-1.82C189.66,202.09,189.41,195.3,188.39,195.3Z"/><path class="cls-27" d="M271.89,208.77l-1,2.87h14.91s-4.51-2.24-5.79-2.24a27.16,27.16,0,0,1-5.49.38A7.52,7.52,0,0,1,271.89,208.77Z"/><path class="cls-10" d="M247.15,25.9c-1.39,1.31-1.71,4.69-.59,5.1a2.55,2.55,0,0,0,3.24-2.7S248.54,24.59,247.15,25.9Z"/><path class="cls-4" d="M248.91,28.57s-.53-2-1.39-1.16-1.25,2.31-.64,2.89S248.74,30.4,248.91,28.57Z"/></g></g></svg>