<svg xmlns="http://www.w3.org/2000/svg" viewBox="0 0 146.88 337.01"><defs><style>.cls-1{fill:#70b0d4;}.cls-2{fill:#e06e7e;}.cls-3{fill:#a6a5bf;}.cls-4{fill:#bc384a;}.cls-5{fill:#ad9ffb;}.cls-6{fill:#2e1d7d;}.cls-7{fill:#e5ac29;}.cls-8,.cls-9{fill:#422a8f;}.cls-8{opacity:0.15;}.cls-10{fill:#fff;}</style></defs><title>B-8</title><g id="Layer_2" data-name="Layer 2"><g id="Layer_3" data-name="Layer 3"><path class="cls-1" d="M118,79.84c3.38,17.7,19.84,30.16,25.45,47.28,2.08,6.34,2.39,13.88-1.73,19.12-1.73,2.2-4.09,3.81-5.94,5.9-6.28,7.07-5.51,17.93-2.72,27s7.23,17.84,7.16,27.29c0,4-1,8.14-3.76,11-5.18,5.26-14.15,3.82-20.56,7.49s-8.86,11.45-12.76,17.7c-5.57,8.94-16.2,15.61-26.47,13.26-7-1.61-12.55-7-19.38-9.16s-14.17-1.06-21.17-2.35c-15.6-2.86-27.41-19.22-25.22-34.92,1.21-8.64,6-16.54,6.7-25.24,1.28-16-11.33-32.66-4.31-47.1,3.46-7.12,10.94-11.47,15.13-18.18,12.72-20.4-8.47-46,4.28-66.36,13.06-20.8,45.45-21.43,65.46-13.25C117.75,47.25,114.67,62.31,118,79.84Z"/><path class="cls-2" d="M32.73,119.16c-1.72-1.6,14.77-17,14.77-17l6.78-43.44s-27,20.42-39.76,42.78"/><path class="cls-2" d="M114.24,119.16c1.72-1.6-14.77-17-14.77-17L92.69,58.74s27,20.42,39.76,42.78"/><ellipse class="cls-3" cx="73.44" cy="332.49" rx="73.44" ry="4.52"/><path class="cls-2" d="M98.37,325.71h-7l-12-94.2c8.31.73,16.62,1,24.93,1.57Z"/><path class="cls-4" d="M106,205.06l-1.77,28c-8.31-.55-16.62-.84-24.93-1.57l-3.38-26.45Z"/><polygon class="cls-5" points="110 202.73 110.03 220.79 75.34 220.79 75.44 202.73 110 202.73"/><path class="cls-6" d="M88.44,332.93h26.19s-.18-5.34-4.44-7.22c-.83-.37-1.77-.72-2.76-1.06-4.07-1.38-8.8-2.42-8.8-2.42l-4.2.25-3.32.19S87.93,327.64,88.44,332.93Z"/><path class="cls-2" d="M67,230c.87.14,1.73.26,2.6.38L57.4,325.71h-7l-6.22-98.4C51.71,227.94,59.31,228.75,67,230Z"/><path class="cls-4" d="M44.15,227.31l-1.41-22.25H72.82l-3.24,25.35c-.87-.12-1.73-.24-2.6-.38C59.31,228.75,51.71,227.94,44.15,227.31Z"/><polygon class="cls-5" points="38.74 202.73 38.71 220.79 73.4 220.79 73.3 202.73 38.74 202.73"/><path class="cls-6" d="M60.3,332.93H34.11s.18-5.34,4.44-7.22c.84-.37,1.78-.72,2.77-1.06,4.06-1.38,8.79-2.42,8.79-2.42l4.2.25,3.32.19S60.81,327.64,60.3,332.93Z"/><path class="cls-7" d="M114.24,209.42,99.47,102.18l4.61-11.38L92.69,58.74c-1.7-.47-3.47-.88-5.3-1.25l-.15,0h0a87,87,0,0,0-13.79-1.65,88.21,88.21,0,0,0-13.77,1.64h0c-1.87.38-3.69.8-5.44,1.28L42.8,90.8l4.61,11.38-12.12,88-2.66,19.27Z"/><path class="cls-8" d="M114.24,209.42,99.47,102.18l4.61-11.38L92.69,58.74c-1.7-.47-3.47-.88-5.3-1.25a168.57,168.57,0,0,1,4.68,28.7,20.24,20.24,0,0,1-.24,6.41c-.68,2.71-2.38,5-3.4,7.61-2,5.08-1.28,10.82-.5,16.25l5.94,41.89c1.39,9.79,2.69,20.21-1.29,29.22a17.21,17.21,0,0,1-5.48,7.21c-3.23,2.34-7.31,3-11.25,3.41-5.62.57-11.42.76-16.74-1.16-4.45-1.61-8.34-4.63-12.81-6.19a20.93,20.93,0,0,0-11-.69l-2.66,19.27Z"/><path class="cls-4" d="M60.7,29.45S54.07,23.46,52,27s4.46,11.42,10.47,8.13"/><path class="cls-2" d="M59.66,57.45c1.15,5.33,12,20,13.77,20,3.6,0,12.7-14.68,13.79-20a87,87,0,0,0-13.79-1.65A88.21,88.21,0,0,0,59.66,57.45Z"/><path class="cls-2" d="M80.32,60.9H66.41V53.22c4.66-1.13,9.29-2.47,13.91-3.81Z"/><path class="cls-4" d="M80.32,44v5.37c-4.62,1.34-9.25,2.68-13.91,3.81V44Z"/><path class="cls-2" d="M85.36,13.23,56.08,11.1s-.3,23,1.41,29.61c1.32,5.09,9.63,9.19,11.42,9.19,3.56,0,15.65-4.6,16.45-10.95C86.76,27.68,85.36,13.23,85.36,13.23Z"/><path class="cls-9" d="M57.05,28.21c-.15.47-.4,1-.88,1.05s-.88-.75-1-1.37a35.13,35.13,0,0,1,.53-11.34c.25-1.18,1-2,2.31-1.59s1.1,1.66,1,2.88A48,48,0,0,1,57.05,28.21Z"/><path class="cls-6" d="M83.75,7c-.47-1.76-.56-3.9.55-5.32C85.56.09,87.76.1,89.52.68a12.74,12.74,0,0,1,7,5.94c1.4,2.49,2,6,.38,8.45a5.38,5.38,0,0,1-6.51,1.83C86.58,15.3,84.85,11.16,83.75,7Z"/><path class="cls-7" d="M85.2,8.05c.32-.73.92-1.47,1.7-1.43A2.34,2.34,0,0,1,88,7.15a30.35,30.35,0,0,1,3.13,2.64,1.12,1.12,0,0,1,.43.72,1.24,1.24,0,0,1-.21.58c-.6,1-1.33,2.14-2.47,2.37C85.52,14.15,84,10.78,85.2,8.05Z"/><path class="cls-9" d="M82.16,30.53A9.54,9.54,0,0,1,81,25.09a11.37,11.37,0,0,1,.78-3.88c.63-1.52,1.72-2.87,2-4.51-3.61.15-7.28,1.59-10.72.49-2-.62-3.7-2-5.75-2.19-2.32-.17-4.42,1.3-6.65,2a4.89,4.89,0,0,1-2.11.24,4.08,4.08,0,0,1-1.63-.63,6.57,6.57,0,0,1-2.66-6.26,9.56,9.56,0,0,1,3.52-6A17.55,17.55,0,0,1,64,1.15,21.83,21.83,0,0,1,74.28.28a16.51,16.51,0,0,1,7.59,3.55,11.79,11.79,0,0,1,4.46,7.65,3.17,3.17,0,0,1,2.1,1.91A8.54,8.54,0,0,1,89,16.32a41.51,41.51,0,0,1-.82,12.43c-.3,1.28-.56,4-2,4.2S82.9,31.71,82.16,30.53Z"/><path class="cls-6" d="M74.26,32.08a3.31,3.31,0,0,1,2.63-1.38,3.44,3.44,0,0,1,1.53.42,3.79,3.79,0,0,1,.67.46l.32.28c.11.11.26.2.36.31a.3.3,0,0,0,.52-.3,3.28,3.28,0,0,0-.17-.5,2.69,2.69,0,0,0-.31-.44,3.6,3.6,0,0,0-.79-.72,3.94,3.94,0,0,0-2-.69,4.35,4.35,0,0,0-3.72,1.76C72.82,31.93,73.79,32.73,74.26,32.08Z"/><path class="cls-6" d="M62.91,31.58a2.88,2.88,0,0,0-2.33-1.4,2.61,2.61,0,0,0-1.32.4,3.11,3.11,0,0,0-.58.45l-.27.28c-.09.11-.22.19-.3.3s-.57,0-.47-.3a4.67,4.67,0,0,1,.14-.5,3,3,0,0,1,.25-.43,3.34,3.34,0,0,1,.68-.72A3.08,3.08,0,0,1,60.43,29a3.78,3.78,0,0,1,3.3,1.79C64.17,31.45,63.35,32.23,62.91,31.58Z"/><path class="cls-6" d="M62.07,35a15.42,15.42,0,0,0,3.07,5.78,5.45,5.45,0,0,0,4,2,6.28,6.28,0,0,0,5.83-4,10.08,10.08,0,0,0,.75-2.34Z"/><path class="cls-6" d="M66.92,32.71a2.93,2.93,0,0,0,1.85.79c.3,0,.46-.48.16-.62a4.93,4.93,0,0,1-1.17-.69,4,4,0,0,1-.51-.5l-.18-.26,0-.07a2,2,0,0,1,.27-.24l.38-.36a7.86,7.86,0,0,0,.73-.8A8.61,8.61,0,0,0,69.57,28c.18-.41-.36-.77-.6-.36a10.36,10.36,0,0,1-1.26,1.75,8.61,8.61,0,0,1-.74.74,4.24,4.24,0,0,0-.8.72C65.74,31.54,66.46,32.3,66.92,32.71Z"/><path class="cls-4" d="M65.14,40.76a5.45,5.45,0,0,0,4,2,6.28,6.28,0,0,0,5.83-4C72.89,38.42,68,38.15,65.14,40.76Z"/><path class="cls-6" d="M75.12,23.78a3.88,3.88,0,0,1,2.18-.21,3.75,3.75,0,0,1,3.12,2.69c0,.16-.15.29-.27.16a5,5,0,0,0-1.35-1,5.64,5.64,0,0,0-1.67-.63,3.25,3.25,0,0,0-1.55.1c-.26.09-.51.21-.77.3s-.47.24-.72.31a.25.25,0,0,1-.31-.24A2.05,2.05,0,0,1,75.12,23.78Z"/><path class="cls-6" d="M62.36,23.6a3.86,3.86,0,0,0-2.18-.21,3.72,3.72,0,0,0-3.11,2.69c0,.15.14.29.26.16a5.46,5.46,0,0,1,1.35-1,5.93,5.93,0,0,1,1.67-.63,3.3,3.3,0,0,1,1.56.11c.26.08.5.21.76.3s.47.24.72.31a.24.24,0,0,0,.31-.24A2,2,0,0,0,62.36,23.6Z"/><path class="cls-2" d="M82.32,31.82s6.12-9.38,9.13-6.64-.83,12.28-7.53,11"/><path class="cls-2" d="M131.51,99.93c7.15,12.51,10.79,27.22,1.83,37.7-25,29.22-56.59-46.84-56.59-46.84h5.57s30.21,30,31.92,28.37"/><path class="cls-2" d="M83.77,91.17s3.72-7.78,2.88-9.13-2.88,3.44-2.88,3.44,1-8.84,0-9.09-2.66,7.39-2.66,7.39-.19-6.79-1.27-7.39-1.07,8.23-1.07,8.23S76.38,77,75.54,77.13s.84,8,.84,8a7.7,7.7,0,0,0,.37,5.68S82.67,93.64,83.77,91.17Z"/><path class="cls-2" d="M15.46,99.93c-7.15,12.51-10.79,27.22-1.83,37.7,25,29.22,56.59-46.84,56.59-46.84H64.65s-30.21,30-31.92,28.37"/><path class="cls-2" d="M63.2,91.17S59.48,83.39,60.32,82s2.88,3.44,2.88,3.44-1-8.84,0-9.09,2.65,7.39,2.65,7.39.2-6.79,1.28-7.39,1.07,8.23,1.07,8.23,2.39-7.61,3.23-7.49-.84,8-.84,8a7.7,7.7,0,0,1-.37,5.68S64.3,93.64,63.2,91.17Z"/><path class="cls-10" d="M87.7,75.91a62.44,62.44,0,0,0,5.09-4.67c.81-.81,1.63-1.62,2.42-2.45a1.21,1.21,0,0,0,.38-1.41.73.73,0,0,0-1-.36.46.46,0,0,0-.27.48l-.1.12c-.17.18-.32.36-.48.54-.3.35-.61.69-.91,1l-1.87,2.1c-1.25,1.4-2.44,2.84-3.56,4.35C87.21,75.86,87.53,76,87.7,75.91Z"/><path class="cls-10" d="M92.07,80.37a31.15,31.15,0,0,1,4.6-1c.78-.1,1.57-.2,2.36-.25l1.18-.06a1.16,1.16,0,0,1,1.11.54.54.54,0,0,1-.08.62c-.33.44-.7.44-1.2.43H98.86c-.73,0-1.46,0-2.19,0-1.51,0-3,.11-4.53.23C91.84,80.93,91.79,80.46,92.07,80.37Z"/><path class="cls-10" d="M49.12,65.32A62.86,62.86,0,0,1,55,69.19c.91.66,1.82,1.33,2.7,2,.45.36.9.72,1.34,1.09a4,4,0,0,1,1.14,1.17.09.09,0,0,1-.1.13,3.94,3.94,0,0,1-1.37-.69L57.25,72c-1-.61-2-1.23-2.93-1.83s-2-1.21-3-1.8-2-1.12-3-1.73A.77.77,0,0,1,49.12,65.32Z"/><path class="cls-10" d="M46,74.25a.64.64,0,0,1,.8-.49l0,0a7.83,7.83,0,0,1,.9.29c.47.16.94.3,1.41.45.91.28,1.83.57,2.73.87,1.85.61,3.7,1.23,5.52,1.93a.23.23,0,0,1-.12.44c-1.87-.38-3.72-.83-5.58-1.29q-1.34-.33-2.67-.69l-1.43-.37a3.86,3.86,0,0,1-1.3-.4A.72.72,0,0,1,46,74.25Z"/><path class="cls-10" d="M51.8,81.49A5.16,5.16,0,0,1,53,81.27l1.16-.19a8.89,8.89,0,0,1,2.35-.19.25.25,0,0,1,.12.47,8.27,8.27,0,0,1-2.22.84l-1.12.34a6,6,0,0,1-1.27.3.67.67,0,0,1-.66-.6A.7.7,0,0,1,51.8,81.49Z"/><path class="cls-10" d="M89.67,84.52c1.29.29,2.57.59,3.82,1,.63.19,1.25.41,1.88.61a9.42,9.42,0,0,1,1.88.7.71.71,0,0,1-.53,1.29,10.74,10.74,0,0,1-1.81-.87c-.58-.27-1.16-.52-1.75-.77-1.2-.51-2.39-1-3.61-1.49A.24.24,0,0,1,89.67,84.52Z"/><path class="cls-10" d="M82.33,67.65c.18-.49.37-1,.56-1.48.1-.25.19-.51.3-.76a1.86,1.86,0,0,1,.25-.43,1.43,1.43,0,0,1,.43-.25.56.56,0,0,1,.69.41,1.3,1.3,0,0,1-.18,1c-.12.22-.26.43-.38.65-.26.44-.5.89-.75,1.34-.49.92-1,1.82-1.49,2.75a.21.21,0,0,1-.39-.17C81.68,69.67,82,68.65,82.33,67.65Z"/><path class="cls-10" d="M73.3,59.53a.48.48,0,0,1,.59-.08,1.14,1.14,0,0,1,.5.94c0,.39,0,.79.06,1.18q.06,1.14.09,2.28c0,1.55-.06,3.1,0,4.64a.27.27,0,1,1-.54,0c-.19-1.52-.49-3-.66-4.55-.08-.74-.16-1.47-.22-2.2S72.74,60.09,73.3,59.53Z"/><path class="cls-10" d="M62.48,64.92a.54.54,0,0,1,.66-.39c.36.1.45.36.59.67s.18.43.28.64c.2.46.42.91.63,1.36.42.9.85,1.8,1.27,2.69a.23.23,0,0,1-.39.24c-.53-.84-1-1.68-1.58-2.51-.27-.42-.53-.84-.8-1.25S62.34,65.46,62.48,64.92Z"/></g></g></svg>