<svg xmlns="http://www.w3.org/2000/svg" viewBox="0 0 968.77 311.48"><defs><style>.cls-1{fill:#fed365;}.cls-2{fill:#222;}</style></defs><title>Flow</title><g id="Layer_2" data-name="Layer 2"><g id="OBJECTS"><path class="cls-1" d="M71.65,166.36h0a18.22,18.22,0,0,0,18.22,18.22h52.22a18.21,18.21,0,0,1,18.22,18.21V220.4a18.22,18.22,0,0,1-18.22,18.22H89.87a18.21,18.21,0,0,0-18.22,18.21v31.58a18.22,18.22,0,0,1-18.22,18.22H18.22A18.22,18.22,0,0,1,0,288.41V112.32A18.22,18.22,0,0,1,18.22,94.1H154.54a18.21,18.21,0,0,1,18.21,18.22v17.6a18.21,18.21,0,0,1-18.21,18.22H89.87A18.22,18.22,0,0,0,71.65,166.36Z"/><path class="cls-1" d="M213.74,94.1H249a18.22,18.22,0,0,1,18.22,18.22V232.85a18.21,18.21,0,0,0,18.21,18.21H344.9a18.22,18.22,0,0,1,18.22,18.22v19.13a18.22,18.22,0,0,1-18.22,18.22H213.74a18.22,18.22,0,0,1-18.22-18.22V112.32A18.22,18.22,0,0,1,213.74,94.1Z"/><path class="cls-1" d="M429.61,297.21a107.06,107.06,0,0,1-42.81-39.62q-15.49-25.33-15.49-57.23t15.49-57.23a107.2,107.2,0,0,1,42.81-39.62q27.31-14.26,61.63-14.27t61.63,14.27a107.2,107.2,0,0,1,42.81,39.62q15.48,25.35,15.49,57.23t-15.49,57.23a107.06,107.06,0,0,1-42.81,39.62q-27.33,14.28-61.63,14.27T429.61,297.21ZM515.38,247a46.72,46.72,0,0,0,17.15-18.52q6.38-12,6.38-28.09t-6.38-28.08a46.79,46.79,0,0,0-17.15-18.52,47.89,47.89,0,0,0-48.28,0A46.72,46.72,0,0,0,450,172.28q-6.37,12-6.38,28.08T450,228.45A46.65,46.65,0,0,0,467.1,247a47.95,47.95,0,0,0,48.28,0Z"/><path class="cls-1" d="M967.89,117.87,911.54,294a18.21,18.21,0,0,1-17.35,12.67h-50a18.23,18.23,0,0,1-17.44-12.95l-13.4-44.38c-5.18-17.13-29.38-17.31-34.8-.25l-14.28,44.88a18.23,18.23,0,0,1-17.36,12.7h-50.2A18.22,18.22,0,0,1,679.37,294L623,117.87A18.22,18.22,0,0,1,640.37,94.1h35.35A18.21,18.21,0,0,1,693.14,107L709.3,159.7c5.22,17,29.26,17.22,34.75.28l17.27-53.28a18.21,18.21,0,0,1,17.32-12.6h39.12A18.22,18.22,0,0,1,835.2,107l16.17,53.42c5.18,17.11,29.34,17.3,34.79.28l17.28-54A18.21,18.21,0,0,1,920.79,94.1h29.75A18.21,18.21,0,0,1,967.89,117.87Z"/><path class="cls-2" d="M48.44,19.06,33.14,57.11H16.86l-15.3-38H17.7l7.65,20.38,8.21-20.38Z"/><path class="cls-2" d="M81.83,22.85q5.3,4.48,5.29,13.81V57.11H72.51v-5q-2.7,5.71-10.78,5.71A17.28,17.28,0,0,1,54,56.24,11,11,0,0,1,47.61,46a9.66,9.66,0,0,1,4.32-8.56Q56.24,34.51,65,34.5h6.33q-.77-4.45-7.16-4.45a18,18,0,0,0-5.22.8A15,15,0,0,0,54.43,33l-5-10.36a27.62,27.62,0,0,1,7.9-3.17,38.34,38.34,0,0,1,9.21-1.15Q76.55,18.36,81.83,22.85ZM69.45,47.44a5.15,5.15,0,0,0,2-2.71V42.08H67.5q-4.78,0-4.79,3.2a2.75,2.75,0,0,0,1,2.2,4,4,0,0,0,2.74.87A5.13,5.13,0,0,0,69.45,47.44Z"/><path class="cls-2" d="M95,13.74A7.27,7.27,0,0,1,92.34,8,7.27,7.27,0,0,1,95,2.26,10.05,10.05,0,0,1,101.8,0a10.33,10.33,0,0,1,6.88,2.16,6.9,6.9,0,0,1,2.58,5.56,7.66,7.66,0,0,1-2.58,6A9.85,9.85,0,0,1,101.8,16,10.05,10.05,0,0,1,95,13.74Zm-1,5.32h15.72V57.11H93.94Z"/><path class="cls-2" d="M175.22,22.61q4.28,4.25,4.27,12.8v21.7H163.77v-19q0-6.54-4.66-6.54a5.48,5.48,0,0,0-4.28,1.84c-1.08,1.23-1.63,3.17-1.63,5.81V57.11H137.48v-38h15v3.75a14.43,14.43,0,0,1,5.14-3.33,17.7,17.7,0,0,1,6.33-1.12Q170.95,18.36,175.22,22.61Z"/><path class="cls-2" d="M195.74,55.27a19.7,19.7,0,0,1-7.9-7A18.6,18.6,0,0,1,185,38.05a18.6,18.6,0,0,1,2.85-10.19,19.39,19.39,0,0,1,7.9-7,27.19,27.19,0,0,1,22.82,0,19.15,19.15,0,0,1,7.86,7,18.74,18.74,0,0,1,2.81,10.19,18.74,18.74,0,0,1-2.81,10.19,19.45,19.45,0,0,1-7.86,7,26.9,26.9,0,0,1-22.82,0Zm15.83-11.69a8.16,8.16,0,0,0,1.73-5.53,8,8,0,0,0-1.73-5.5,6.09,6.09,0,0,0-8.91,0,8,8,0,0,0-1.74,5.5,8.11,8.11,0,0,0,1.74,5.53,6,6,0,0,0,8.91,0Z"/></g></g></svg>