<svg xmlns="http://www.w3.org/2000/svg" viewBox="0 0 163.15 339.1"><defs><style>.cls-1{fill:#a6a5bf;}.cls-2{fill:#aba3fb;}.cls-3{fill:#e06e7e;}.cls-4,.cls-9{fill:#dbe8ec;}.cls-5{fill:#2e1d7d;}.cls-6{fill:#5d55ce;}.cls-10,.cls-7{fill:#2d187b;}.cls-7{opacity:0.34;}.cls-8{fill:#71b1db;}.cls-9{opacity:0.35;}.cls-10{opacity:0.12;}.cls-11{fill:#bc384a;}</style></defs><title>B-7</title><g id="Layer_2" data-name="Layer 2"><g id="Layer_3" data-name="Layer 3"><ellipse class="cls-1" cx="83.03" cy="334.58" rx="75.48" ry="4.52"/><path class="cls-2" d="M0,161.93l10.93-13a409.2,409.2,0,0,0-.77,101.77,194.36,194.36,0,0,0,18.2-19.43,338.45,338.45,0,0,0,15.35,55.29q8.59-17.34,18.2-34.17a292,292,0,0,0,21.9,34.75,82.38,82.38,0,0,1,13.24-26.53l17.07,17.86a297.3,297.3,0,0,1,8-54.71c11.21,2.79,16,18.94,27.52,19.76l-5-60.31,18,12.09c1.5-11.57-.73-23.25-2.94-34.7l-11.44-59.08a17.25,17.25,0,0,1,10,6.84C151.89,88.87,140.33,48.07,127.71,39,111.5,27.32,89.37,25.84,69.42,26.87c-23.87,1.23-45.95,15.61-51,39.66C11.87,98.23,6.15,130.14,0,161.93Z"/><path class="cls-3" d="M31.08,118.9s-11,81.32,3.26,82.94,14.94-7.7,14.94-7.7-.75-.87-3.78,1.76c0,0,1.28-3.77.09-4.05s-3.68,2.82-3.68,2.82-2.54-4-6-3.46c0,0,3.88-14.73,7.24-25s13.72-39,9.91-53.82"/><path class="cls-4" d="M52.39,63.78S65.12,101,56.12,123.51l-30.77-5.94S32.83,70.26,52.39,63.78Z"/><polygon class="cls-3" points="58.76 317.23 60.65 324.59 70.53 324.59 68.69 316.31 58.76 317.23"/><path class="cls-5" d="M70.53,324.59a20.3,20.3,0,0,1,5.44,10H41.81s1.43-8.07,18.84-10C63.11,324.32,70.53,324.59,70.53,324.59Z"/><polygon class="cls-3" points="94.69 317.23 96.58 324.59 106.45 324.59 104.62 316.31 94.69 317.23"/><path class="cls-5" d="M106.45,324.59a20.21,20.21,0,0,1,5.44,10H77.74s1.42-8.07,18.84-10C99,324.32,106.45,324.59,106.45,324.59Z"/><path class="cls-6" d="M69.62,250.48c-3,10.26,6.19,69.13,6.19,69.13H55.71s-7.14-38.8-12.49-57.89c-3.83-13.66,1.06-56.59,4.15-79.9,1.23-9.26,2.17-15.43,2.17-15.43L83,161.53l-.13,17.6S77.23,213,73.08,234.51C71.65,241.91,70.4,247.86,69.62,250.48Z"/><path class="cls-7" d="M83,161.53l-.13,17.6S77.23,213,73.08,234.51c-4-14.93-11.59-29-19.52-42.4q-3-5.16-6.19-10.29c1.23-9.26,2.17-15.43,2.17-15.43Z"/><path class="cls-6" d="M116.53,161.53l-.12,17.6s-2.48,14.75-5.36,31c-3,16.8-6.39,35.16-7.93,40.37-3,10.26,6.19,69.13,6.19,69.13H89.21s-7.14-38.8-12.49-57.89c-3.46-12.36.2-50.73,3.22-76.23,1.64-13.89,3.09-24,3.09-24Z"/><path class="cls-7" d="M116.53,161.53l-.12,17.6s-2.48,14.75-5.36,31A94.3,94.3,0,0,0,98.92,199c-5.29-4.11-14.66-7.82-19-13.54,1.64-13.89,3.09-24,3.09-24Z"/><path class="cls-8" d="M126.31,149.38a210.64,210.64,0,0,1-4.38,27.74l-80.11-1.81a166.6,166.6,0,0,0,4.08-17.87q.66-3.74,1.21-7.58C48.23,142.06,49,134,49.63,126c.7-9.35,1.09-18.51,1.27-26.78s.19-15.71.13-21.53c-.1-8.19-.32-13.25-.32-13.25a85.25,85.25,0,0,1,12.46-4c1.82-.43,3.7-.82,5.65-1.15A103.41,103.41,0,0,1,83,57.9a103.57,103.57,0,0,1,14.22,1.47c1.89.32,3.73.69,5.5,1.12l.14,0c1.62.38,3.22.8,4.76,1.25,2.12.62,4.15,1.29,6.06,2a74.37,74.37,0,0,1,3,6.91A148.92,148.92,0,0,1,123.15,93a181.58,181.58,0,0,1,3.26,22A196,196,0,0,1,126.31,149.38Z"/><path class="cls-9" d="M123.15,93A120.78,120.78,0,0,1,50.9,99.26c.19-8.3.19-15.71.13-21.53,21.5,3.13,44.14-.51,65.65-7A148.92,148.92,0,0,1,123.15,93Z"/><path class="cls-9" d="M126.31,149.38a133.75,133.75,0,0,1-80.41,8.06c1.77-10.06,3-20.85,3.73-31.4,25.49,2.85,51.93-2.39,76.78-11.08A196,196,0,0,1,126.31,149.38Z"/><path class="cls-10" d="M126.31,149.38a210.64,210.64,0,0,1-4.38,27.74l-80.11-1.81a166.6,166.6,0,0,0,4.08-17.87q.66-3.74,1.21-7.58a22.21,22.21,0,0,1,8.06-3.57c7.17-1.56,14.57.42,21.86,1.18s15.64-.16,20.28-5.84c3.26-4,4-9.45,4.11-14.59.36-11.31-1.19-22.6-1.16-33.91,0-10.89,1.67-22.16,7.4-31.36,2.12.62,4.15,1.29,6.06,2a74.37,74.37,0,0,1,3,6.91A148.92,148.92,0,0,1,123.15,93a181.58,181.58,0,0,1,3.26,22A196,196,0,0,1,126.31,149.38Z"/><path class="cls-3" d="M68.81,59.26c.83,5.07,3.77,13.23,14.22,13.23s13.4-8.16,14.23-13.23A110.91,110.91,0,0,0,83,57.9,110.92,110.92,0,0,0,68.81,59.26Z"/><path class="cls-3" d="M90.11,66.86H75.81V59.18c4.79-1.13,9.55-2.47,14.3-3.81Z"/><path class="cls-11" d="M90.11,50v5.38c-4.75,1.34-9.51,2.68-14.3,3.81V50Z"/><path class="cls-11" d="M64.25,38.54S56.38,34,55,37.94s6.77,10.28,12.16,5.82"/><path class="cls-3" d="M88.09,17.72,58.18,21.63s2.38,31.81,8,34.92,27.84-2.29,27-13.62S88.09,17.72,88.09,17.72Z"/><path class="cls-5" d="M61.32,32.05c-.14-2.31-.53-5-2.54-6.15-.64-.37-1.63-.43-2,.24a1.5,1.5,0,0,0-.12.73,20.56,20.56,0,0,0,.12,2.72,22,22,0,0,0,.68,2.89c.58,2,1,6.94,3,8C62.13,38.55,61.32,34.47,61.32,32.05Z"/><path class="cls-5" d="M85.63,23.5a2.87,2.87,0,0,1-4.22-2.19A18.38,18.38,0,0,1,77,24.62a6.72,6.72,0,0,1-3.26,1A3,3,0,0,1,71,24c-1.84,1.72-3.76,3.5-6.17,4.21s-5.45,0-6.56-2.26c-2.49,2.14-6.76,1.37-8.65-1.31a7.47,7.47,0,0,1,.82-9.07,9.6,9.6,0,0,1,9-2.59,9.2,9.2,0,0,1,2.4-10.36,9.21,9.21,0,0,1,10.6-.74c1.58,1,2.81,2.48,4.4,3.44C79.39,1.94,83.52-.43,87.69.07a9.73,9.73,0,0,1,8,6.67,9.75,9.75,0,0,1-2.88,10,11.12,11.12,0,0,1,4.93,9.16c0,3.26-2,9.14-6.21,7.64C87.69,32.17,85.11,27.38,85.63,23.5Z"/><path class="cls-5" d="M81.76,37.1a3.37,3.37,0,0,0,2.91.81,3.45,3.45,0,0,0,1.46-.72,4,4,0,0,0,.59-.58c.09-.11.18-.23.26-.35a3.47,3.47,0,0,0,.3-.37.31.31,0,0,1,.59.19,3.12,3.12,0,0,1-.08.52,2.38,2.38,0,0,1-.22.49,3.51,3.51,0,0,1-.66.87A4.17,4.17,0,0,1,85,39.05a4.5,4.5,0,0,1-4.09-1C80.33,37.54,81.15,36.56,81.76,37.1Z"/><path class="cls-5" d="M70.27,39.91a3.3,3.3,0,0,1-4,1.74,4.22,4.22,0,0,1-.76-.32l-.38-.22c-.13-.08-.3-.14-.42-.23a.31.31,0,0,0-.47.4,3,3,0,0,0,.27.45,2.72,2.72,0,0,0,.39.37,3.9,3.9,0,0,0,.94.56A4.17,4.17,0,0,0,68,43a4.5,4.5,0,0,0,3.42-2.45C71.75,39.77,70.62,39.17,70.27,39.91Z"/><path class="cls-5" d="M78,41.48a.4.4,0,0,0-.36-.27,1.71,1.71,0,0,0-.81.31,1.46,1.46,0,0,1-.74.16,2.81,2.81,0,0,1-.9-.25.5.5,0,0,1-.35-.53c-.07-.75-.14-1.51-.2-2.26a22,22,0,0,0-.24-2.31c0-.2-.29-.12-.31,0-.12.94-.14,1.9-.17,2.85,0,.48,0,1-.09,1.45A2.13,2.13,0,0,0,74,41.89a2.81,2.81,0,0,0,2.29,1C77,42.91,78.39,42.42,78,41.48Z"/><path class="cls-5" d="M69.16,32.47a.78.78,0,0,0-1,.28,11.29,11.29,0,0,1-2.4,2.75,6.18,6.18,0,0,1-1.45.79,12,12,0,0,1-1.64.43.24.24,0,0,0-.06.43,4.2,4.2,0,0,0,3.79-.46,11.52,11.52,0,0,0,3.09-3.17A.77.77,0,0,0,69.16,32.47Z"/><path class="cls-5" d="M88,32.61a1.06,1.06,0,0,0-.5,0,4.57,4.57,0,0,1-.64,0,9,9,0,0,1-1.16-.15,10,10,0,0,1-2.21-.58,9.83,9.83,0,0,1-3.6-2.47c-.68-.75-1.79.37-1.11,1.11a9.47,9.47,0,0,0,4.4,2.75,8.86,8.86,0,0,0,2.5.33A5.8,5.8,0,0,0,87,33.38a1.78,1.78,0,0,0,1-.54C88.12,32.76,88.05,32.64,88,32.61Z"/><path class="cls-5" d="M85.42,42.38a27.29,27.29,0,0,0-7.53,2.91,23.81,23.81,0,0,0-3.24,2.22,18.85,18.85,0,0,0-1.49,1.33c-.23.24-.76.63-.63,1a.18.18,0,0,0,.17.13c.11,0,.15,0,.22-.11v0a5.33,5.33,0,0,1,.6-.38l.7-.46c.49-.34,1-.66,1.5-1,1-.64,2.12-1.24,3.23-1.78a32.1,32.1,0,0,1,6.88-2.41C86.79,43.64,86.38,42.16,85.42,42.38Z"/><path class="cls-3" d="M90,34.67s3-8.56,6.58-6.49,1.61,12.2-5.39,12.36"/><path class="cls-3" d="M118.31,118.75s-5.18,81.89,9.14,82.5,14.35-8.75,14.35-8.75-.81-.8-3.64,2c0,0,1-3.85-.2-4.05s-3.47,3.08-3.47,3.08-2.82-3.83-6.26-3c0,0,2.82-15,5.45-25.49s10.92-39.83,6.06-54.39"/><path class="cls-4" d="M114.22,63.78s-10.06,38,.51,59.84l30.27-8.1S134.18,68.86,114.22,63.78Z"/><path class="cls-5" d="M43.82,61.73a16.68,16.68,0,0,0-5.16,3.71,38.32,38.32,0,0,0-4.36,4.73,39.54,39.54,0,0,0-6.09,11.15c-.26.72.85,1,1.12.31a38.66,38.66,0,0,1,6.28-10.58,39.1,39.1,0,0,1,4.16-4.28c1.51-1.34,3.36-2.38,4.75-3.84C45,62.45,44.53,61.47,43.82,61.73Z"/><path class="cls-5" d="M40.78,57.52a4.78,4.78,0,0,0-2.38.9,19.29,19.29,0,0,0-2,1.27A18.05,18.05,0,0,0,33,63.07c-.44.58.51,1.29,1,.78A19.81,19.81,0,0,1,37.35,61a17.13,17.13,0,0,1,1.9-1.11,7,7,0,0,0,2-1.11A.75.75,0,0,0,40.78,57.52Z"/><path class="cls-5" d="M132.27,70.86a10.78,10.78,0,0,0-1.71-2.61,25.89,25.89,0,0,0-1.87-2.18,27.81,27.81,0,0,0-4.88-4,30.21,30.21,0,0,0-5.52-2.82,27.84,27.84,0,0,0-3-1,6.13,6.13,0,0,0-3.09-.43.82.82,0,0,0-.19,1.47,8.36,8.36,0,0,0,2.77.8,28.16,28.16,0,0,1,2.69.88,29.73,29.73,0,0,1,5.23,2.62,32,32,0,0,1,4.55,3.48c.73.67,1.42,1.38,2.09,2.11s1.19,1.62,1.91,2.26C131.69,71.79,132.49,71.45,132.27,70.86Z"/><path class="cls-5" d="M127.33,58.31c-.4-.22-.78-.48-1.18-.69s-.83-.45-1.25-.67-.82-.4-1.23-.59a5.63,5.63,0,0,0-1.42-.57.77.77,0,0,0-.83.34.76.76,0,0,0,.12.89,5.56,5.56,0,0,0,1.34.77c.45.21.89.44,1.35.63l1.25.53.36.14c.13,0,.26,0,.38.09s.42.19.62.28a.63.63,0,0,0,.75-.37A.63.63,0,0,0,127.33,58.31Z"/><path class="cls-5" d="M38,228.51a.61.61,0,0,0-1.21,0A143.93,143.93,0,0,0,38,253.58c.11.74,1.36.57,1.32-.18C38.8,245.1,38.11,236.82,38,228.51Z"/><path class="cls-5" d="M32.44,234.36a33.29,33.29,0,0,0-.44-3.73.65.65,0,0,0-1.27.17,32,32,0,0,0,.36,3.64c.15,1.21.32,2.42.47,3.63a.62.62,0,0,0,.61.6.6.6,0,0,0,.6-.6C32.66,236.84,32.56,235.6,32.44,234.36Z"/><path class="cls-5" d="M110.72,252.39c-.14-1.5-.23-3-.28-4.52a71.48,71.48,0,0,1,.27-9c.06-.66-1.07-.82-1.17-.16a61.31,61.31,0,0,0-.63,9.18c0,1.51.08,3,.21,4.52a22.31,22.31,0,0,0,.68,4.67.71.71,0,0,0,1.39-.19C111.17,255.38,110.86,253.88,110.72,252.39Z"/><path class="cls-5" d="M115.32,251c0-.22-.07-.44-.1-.66-.06-.45-.12-.9-.16-1.36a13.88,13.88,0,0,1-.07-1.44v-.67c0-.11,0-.22,0-.33s0-.3,0-.45c0-.61-1-.79-1.1-.14a3.38,3.38,0,0,0-.11.48c0,.11,0,.22,0,.33s0,.52,0,.78c0,.48,0,1,0,1.44a13.74,13.74,0,0,0,.09,1.44c0,.29.08.57.13.86a3.71,3.71,0,0,0,.22.74.66.66,0,0,0,.72.48.65.65,0,0,0,.57-.65A7.9,7.9,0,0,0,115.32,251Z"/></g></g></svg>