<svg width="235" height="561" viewBox="0 0 235 561" fill="none" xmlns="http://www.w3.org/2000/svg">
<g clip-path="url(#clip0)">
<path d="M114.143 550.751C177.182 550.751 228.286 548.456 228.286 545.626C228.286 542.796 177.182 540.501 114.143 540.501C51.1035 540.501 0 542.796 0 545.626C0 548.456 51.1035 550.751 114.143 550.751Z" fill="#C7D5FD"/>
<path d="M114.143 543.469L155.771 542.929C155.771 542.929 129.451 536.996 126.765 527.556C126.228 525.668 126.497 518.925 127.303 509.485C123.811 509.485 120.32 509.755 117.097 510.564C117.634 521.622 118.171 528.904 118.171 528.904L114.143 543.469Z" fill="#DE5E5B"/>
<path d="M118.172 96.5566C118.172 96.5566 151.475 117.864 161.412 117.864C171.349 117.864 207.606 74.1706 211.098 68.7764L218.618 70.6643C218.618 70.6643 186.121 132.698 167.321 138.362C148.252 144.296 116.023 117.864 116.023 117.864L118.172 96.5566Z" fill="#C65656"/>
<path d="M185.045 277.263L161.143 223.321L201.697 191.765L221.303 239.773L185.045 277.263Z" fill="#C4C5FC"/>
<path d="M161.143 223.321H178.868L228.017 188.798L194.714 197.159L161.143 223.321Z" fill="#A8AAE0"/>
<path d="M189.341 150.498L178.867 223.321L228.016 188.797L234.999 133.507L189.341 150.498Z" fill="#D5D6FC"/>
<path d="M175.914 133.507L189.343 150.499L235 133.507L218.08 117.594L175.914 133.507Z" fill="#B8BBFA"/>
<path d="M193.103 75.7886L175.914 133.507L218.08 117.594L232.583 80.104L193.103 75.7886Z" fill="#C4C5FC"/>
<path d="M51.8342 192.843C51.8342 192.843 48.0742 208.756 51.8342 217.387C55.5942 226.018 76.8113 222.781 76.8113 222.781L69.8285 186.37L51.8342 192.843Z" fill="#4D325C"/>
<path d="M66.3364 169.378L58.8164 170.727C54.2507 171.536 50.4907 174.773 49.4164 179.358L43.7764 200.395H66.3364V169.378Z" fill="#5B3B6E"/>
<path d="M54.7887 133.777C54.7887 133.777 52.6402 205.25 67.6802 220.624C82.7202 235.727 103.4 225.209 103.4 225.209L99.3716 121.1L54.7887 133.777Z" fill="#3B683D"/>
<path d="M61.5039 131.889C64.1896 144.026 78.4239 180.976 81.3782 189.067C85.4068 200.395 78.9611 214.42 74.1268 225.478C88.0925 233.3 103.67 225.209 103.67 225.209L99.641 121.1L61.5039 131.889Z" fill="#452A53"/>
<path d="M93.4622 86.8466C93.4622 86.8466 55.3251 88.1951 49.6851 94.1288C43.7765 100.062 41.8965 148.88 41.8965 148.88H97.7593C97.7593 148.88 99.3708 86.5769 93.4622 86.8466Z" fill="#6AA928"/>
<path d="M93.462 86.8466C93.462 86.8466 88.8963 88.1951 82.7191 89.5437C74.9306 91.162 67.9477 95.7471 64.1877 102.76C62.5763 105.726 61.502 108.693 61.502 112.199C61.502 125.146 60.9649 142.947 60.6963 148.88H98.0277C97.7591 148.88 99.3706 86.5769 93.462 86.8466Z" fill="#507F1E"/>
<path d="M56.6679 532.95L42.4336 547.514L46.1936 560.73L63.1136 539.153C63.1136 539.153 64.4565 528.364 69.5593 509.754C64.9936 509.215 60.4279 508.676 55.8622 508.676C56.3993 524.858 56.6679 532.95 56.6679 532.95Z" fill="#DF7474"/>
<path d="M142.074 396.745L152.012 268.093C123.812 273.218 96.1488 260.541 71.7088 246.786C67.4116 259.193 65.5316 272.408 66.3373 285.894L71.4402 390.812C71.4402 390.812 59.0859 404.837 56.6688 426.683C55.3259 440.708 54.5202 482.514 54.7888 510.294C59.3545 510.294 66.6059 510.833 71.1716 511.373C81.1088 474.153 94.5373 415.625 94.5373 405.107C94.5373 389.194 106.354 294.255 106.354 294.255H113.874L117.903 394.588C117.903 394.588 109.309 407.804 111.994 439.63C113.606 460.128 112.532 491.954 113.874 511.643C117.366 510.833 123.812 509.755 127.303 509.755C130.794 473.074 142.074 396.745 142.074 396.745Z" fill="#5874D2"/>
<path d="M91.3134 257.035C90.5077 256.495 89.4334 256.225 88.6277 255.686L82.182 375.977L60.6963 510.294C61.502 510.294 62.5763 510.294 63.382 510.563L84.8677 376.247L91.3134 257.035Z" fill="#788EDB"/>
<path d="M71.7082 247.055C70.6339 250.292 69.5596 253.798 68.7539 257.304C92.9253 269.711 123.542 282.657 150.937 280.5L151.742 268.363C123.811 273.217 96.1482 260.541 71.7082 247.055Z" fill="#44599C"/>
<path d="M172.691 194.192C172.691 194.192 172.96 190.416 174.84 188.528C176.72 186.64 178.331 187.719 180.749 187.449C183.166 187.18 182.897 183.943 183.971 183.943C185.046 183.943 185.583 187.449 183.971 189.068C182.36 190.686 172.691 194.192 172.691 194.192Z" fill="#DE5E5B"/>
<path d="M157.383 270.79L153.354 251.101C153.354 251.101 137.777 139.98 127.84 115.706C117.903 91.162 118.977 87.1163 95.0744 84.4192C85.1373 83.3403 72.783 90.3528 68.2173 94.6682C61.7715 100.602 65.8001 109.502 67.6801 116.515C67.6801 116.515 89.4344 190.416 89.4344 204.171C89.4344 210.374 84.3315 221.163 78.9601 230.873C76.0058 235.997 72.783 241.122 70.903 246.786C95.0744 260.001 129.183 275.914 157.383 270.79Z" fill="#84005B"/>
<path d="M127.84 23.1949C127.303 22.6555 130.257 18.6098 130.257 12.1367C130.257 5.66363 125.96 -0.27002 118.44 -0.27002C110.92 -0.27002 115.217 2.96652 108.234 4.8545C101.251 6.74248 102.863 -0.000307888 97.76 3.50594C92.6571 7.01219 96.6857 9.97902 92.3885 11.3276C88.0914 12.6761 88.8971 5.39392 85.1371 7.55162C81.6457 9.70931 77.08 14.2944 82.9885 17.2612C88.6285 20.2281 88.0914 24.5434 86.2114 28.5891C84.6 32.6348 89.7028 40.1867 94 35.8713C94 35.8713 95.0742 36.141 94.2685 39.1079C93.4628 42.3444 97.4914 43.693 97.76 43.693C98.0285 43.693 98.8342 43.9627 106.086 39.1079C113.337 34.5228 120.32 42.6141 122.737 32.9045C125.423 23.4646 127.84 23.1949 127.84 23.1949Z" fill="#232C7A"/>
<path d="M126.496 21.3071C128.108 21.5768 132.136 24.2739 129.451 26.971C126.765 29.6681 122.736 28.859 120.051 29.1287C117.365 29.3984 116.022 29.6681 114.948 29.6681C113.873 29.6681 117.365 26.4316 118.976 24.8133C120.588 22.9254 124.348 21.0374 126.496 21.3071Z" fill="#E5B12C"/>
<path d="M127.84 22.1163C127.84 22.1163 127.84 21.0375 132.943 17.801C138.046 14.8341 143.954 19.9586 143.954 19.9586L145.028 16.1827C145.028 16.1827 140.463 10.249 134.286 14.5644C128.108 18.8798 127.84 22.1163 127.84 22.1163Z" fill="#232C7A"/>
<path d="M114.948 81.9922C114.948 81.9922 109.577 93.0503 111.188 100.872C111.188 100.872 108.234 104.109 98.5655 98.1749C88.8969 92.2412 89.4341 85.2287 89.4341 85.2287C89.4341 85.2287 99.6398 68.5066 102.326 61.2244C104.474 55.021 108.234 49.8965 108.234 49.8965L114.948 81.9922Z" fill="#DF7474"/>
<path d="M107.966 50.4358L114.949 81.992C114.949 81.992 114.412 83.0709 113.875 84.6892C102.058 81.992 107.966 50.4358 107.966 50.4358Z" fill="#DE5E5B"/>
<path d="M143.148 43.1535C143.417 43.9626 144.76 54.4814 142.342 58.5271C140.194 62.5727 133.748 64.191 133.748 65.8093C133.748 67.4275 133.48 72.0126 134.554 75.2492C134.554 75.2492 133.748 76.328 130.794 75.2492C130.794 75.2492 129.72 76.5977 129.72 77.6766C129.72 78.7554 129.182 79.0251 128.914 79.2949C128.645 79.2949 127.571 79.2949 127.571 79.2949L125.691 80.104C125.691 80.104 125.96 80.3737 125.154 81.1828C124.348 81.992 123.005 81.1828 123.005 81.1828C123.005 81.1828 122.2 80.9131 120.857 82.2617C119.514 83.6102 118.171 85.7679 113.337 82.2617C109.577 79.5646 101.788 65.2699 103.668 57.9876C105.011 52.054 114.68 40.1867 117.902 39.1078C122.468 37.7593 141.537 37.7593 143.148 43.1535Z" fill="#DF7474"/>
<path d="M147.714 38.029C147.714 38.029 153.354 43.1535 154.697 50.4357C156.04 57.7179 155.234 65.8093 147.177 68.2367C139.12 70.6641 136.971 66.6184 136.971 66.6184C136.971 66.6184 143.148 66.3487 142.343 64.191C141.806 62.0333 138.314 62.5727 138.314 62.5727C138.314 62.5727 140.731 59.6059 139.657 58.5271C138.583 57.4482 131.331 57.7179 131.331 57.7179C131.331 57.7179 135.628 51.5146 132.406 51.5146C129.183 51.5146 126.766 52.5934 121.663 52.5934C116.56 52.5934 110.651 55.2905 110.651 60.415C110.651 65.2698 113.337 65.8093 113.337 65.8093C113.337 65.8093 110.383 67.4275 108.503 64.7304C106.623 62.0333 107.966 59.0665 107.966 59.0665L106.086 63.3819C106.086 63.3819 103.668 60.6847 105.28 56.0996C106.891 51.5145 118.171 46.9295 117.366 44.2323C116.56 41.5352 105.817 52.5934 102.594 59.8756C102.594 59.8756 105.011 51.7843 102.057 48.8174C99.1028 45.8506 94.537 42.8838 100.983 34.7924C107.428 26.7011 123.006 30.4771 129.451 26.7011C135.897 23.1948 150.131 28.3194 147.714 38.029Z" fill="#3648A2"/>
<path d="M115.485 48.0086C115.485 48.0086 120.588 43.4235 116.559 41.5355C112.262 39.9172 106.085 48.0086 109.577 49.3571C112.531 50.7057 115.485 48.0086 115.485 48.0086Z" fill="#DF7474"/>
<path d="M115.486 47.199C115.486 47.199 116.56 44.5019 114.948 43.9624C113.337 43.423 109.308 46.9293 110.114 48.2778C110.92 49.8961 114.143 48.8172 115.486 47.199Z" fill="#DE5E5B"/>
<path d="M93.4621 56.0997C93.4621 56.0997 93.1935 56.0997 93.4621 56.0997C74.6621 46.9295 74.6621 25.892 74.6621 25.892C74.6621 25.6223 74.9307 25.3525 75.1993 25.3525C75.4678 25.3525 75.7364 25.6223 75.7364 25.892C75.7364 26.1617 76.005 46.39 93.7307 55.0208C93.9993 55.2905 94.2678 55.5602 93.9992 55.8299C93.9992 55.8299 93.7307 56.0997 93.4621 56.0997Z" fill="#5B3B6E"/>
<path d="M132.138 66.0789L133.481 65C133.481 65 133.481 65.8091 132.675 66.3486C132.675 66.3486 132.406 66.3486 132.406 66.6183C132.406 66.3486 132.406 66.3486 132.138 66.0789Z" fill="#3648A2"/>
<path d="M129.72 63.1121C133.211 63.9212 135.36 67.9669 137.24 67.4275C136.434 67.6972 134.823 65.5395 133.748 64.7303C132.674 63.6515 131.063 63.1121 129.72 63.1121Z" fill="#1C2458"/>
<path d="M52.3707 537.535C52.3707 537.535 48.8793 546.435 51.565 546.435C54.2507 546.435 61.7707 541.311 61.7707 541.311L46.1936 561L42.4336 547.784L52.3707 537.535Z" fill="#2D2465"/>
<path d="M115.754 537.535L114.143 543.469L155.771 542.929L138.851 537.265C138.851 537.535 120.32 540.232 115.754 537.535Z" fill="#2D2465"/>
<path d="M71.9778 90.8924L67.6807 91.7016C67.6807 91.7016 78.155 95.7473 83.2578 108.154C88.3607 120.561 87.8235 180.976 85.9435 185.022C84.0635 189.067 83.5264 192.034 83.5264 192.034L85.4064 200.665C85.4064 200.665 96.955 190.955 95.6121 151.038C95.3435 138.362 89.435 90.353 71.9778 90.8924Z" fill="#507F1E"/>
<path d="M68.2171 94.3986C68.2171 94.3986 57.7428 98.1746 70.6342 142.947C83.5256 186.91 112.531 208.756 131.6 207.678C150.668 206.868 167.589 199.047 172.691 202.553C177.794 206.059 190.148 204.441 192.028 190.686C192.297 189.607 193.103 186.91 191.76 184.482C190.417 181.785 178.6 191.495 171.617 191.765C164.903 192.034 136.971 190.686 123.543 185.831C110.651 181.246 94.8056 166.412 92.1199 150.499C89.4342 134.586 79.2285 90.353 68.2171 94.3986Z" fill="#DF7474"/>
<path d="M203.309 74.7097C203.309 74.7097 202.503 79.2948 204.115 79.8343C204.652 80.104 204.92 77.9463 205.726 76.8674C207.875 74.1703 210.829 69.3155 210.292 68.7761C209.755 68.2367 204.383 73.6309 203.309 74.7097Z" fill="#DE5E5B"/>
<path d="M210.022 68.5063C210.022 68.5063 204.92 82.801 207.605 81.9918C210.022 81.1827 211.097 76.8673 212.171 75.7885C213.245 74.7096 210.291 81.4524 211.634 81.9918C212.977 82.5313 215.394 77.6764 216.199 75.249C216.199 75.249 213.782 80.6433 214.588 81.4524C215.394 82.2615 218.079 76.5976 219.422 75.249C220.765 73.9005 218.885 69.8548 217.811 69.8548C216.199 69.8548 210.828 67.6971 210.022 68.5063Z" fill="#DF7474"/>
</g>
<defs>
<clipPath id="clip0">
<rect width="235" height="561" fill="white"/>
</clipPath>
</defs>
</svg>
